<?xml version="1.0" encoding="utf-8"?>
<!-- Generator: Adobe Illustrator 26.2.1, SVG Export Plug-In . SVG Version: 6.00 Build 0)  -->
<svg version="1.1" id="Layer_1" xmlns="http://www.w3.org/2000/svg" xmlns:xlink="http://www.w3.org/1999/xlink" x="0px" y="0px"
	 viewBox="0 0 95.7 20" style="enable-background:new 0 0 95.7 20;" xml:space="preserve">
<style type="text/css">
	.st0{fill:none;}
	.st1{fill-rule:evenodd;clip-rule:evenodd;fill:url(#SVGID_1_);}
	
		.st2{opacity:0.5;fill-rule:evenodd;clip-rule:evenodd;fill:url(#SVGID_00000124155761894434347570000013893237791516780686_);enable-background:new    ;}
	
		.st3{opacity:0.15;fill-rule:evenodd;clip-rule:evenodd;fill:url(#SVGID_00000157280168477707538130000007650709492025851797_);enable-background:new    ;}
	.st4{fill:#FFFFFF;}
</style>
<g>
	<path class="st0" d="M0,0"/>
	<g>
		
			<linearGradient id="SVGID_1_" gradientUnits="userSpaceOnUse" x1="-1673.2164" y1="53.7165" x2="-1673.7633" y2="54.7165" gradientTransform="matrix(16.789 0 0 19.704 28104.4199 -1058)">
			<stop  offset="0" style="stop-color:#33D35E"/>
			<stop  offset="1" style="stop-color:#2AB6D9"/>
		</linearGradient>
		<path class="st1" d="M10.8,0L0,19.7h6L16.8,0H10.8z"/>
		
			<linearGradient id="SVGID_00000141457359469817165430000016312317591455687359_" gradientUnits="userSpaceOnUse" x1="-1673.2148" y1="53.7173" x2="-1673.7618" y2="54.7173" gradientTransform="matrix(16.789 0 0 19.704 28111.7871 -1058)">
			<stop  offset="0" style="stop-color:#33D35E"/>
			<stop  offset="1" style="stop-color:#2AB6D9"/>
		</linearGradient>
		
			<path style="opacity:0.5;fill-rule:evenodd;clip-rule:evenodd;fill:url(#SVGID_00000141457359469817165430000016312317591455687359_);enable-background:new    ;" d="
			M18.2,0L7.4,19.7h6L24.2,0H18.2z"/>
		
			<linearGradient id="SVGID_00000107578234895732716130000008561433538168132245_" gradientUnits="userSpaceOnUse" x1="-1673.2118" y1="53.7156" x2="-1673.7585" y2="54.7156" gradientTransform="matrix(16.788 0 0 19.704 28117.375 -1058)">
			<stop  offset="0" style="stop-color:#33D35E"/>
			<stop  offset="1" style="stop-color:#2AB6D9"/>
		</linearGradient>
		
			<path style="opacity:0.15;fill-rule:evenodd;clip-rule:evenodd;fill:url(#SVGID_00000107578234895732716130000008561433538168132245_);enable-background:new    ;" d="
			M25.5,0L14.7,19.7h6L31.5,0H25.5z"/>
	</g>
</g>
<g>
	<g>
		<path class="st4" d="M34,14.2c-0.5-0.3-0.9-0.7-1.2-1.2s-0.4-1.1-0.4-1.9v-0.9c0-0.8,0.1-1.4,0.4-2c0.3-0.5,0.6-1,1.1-1.2
			c0.5-0.3,1.1-0.4,1.8-0.4s1.2,0.2,1.7,0.5s0.8,0.8,1.1,1.4c0.2,0.6,0.4,1.4,0.4,2.3v0.5h-5.3V10h3.6V9.9c0-0.5-0.2-1-0.5-1.3
			s-0.6-0.4-1-0.4c-0.5,0-1,0.2-1.2,0.5c-0.3,0.3-0.4,0.8-0.4,1.4v1c0,0.6,0.2,1,0.5,1.4c0.3,0.3,0.8,0.5,1.3,0.5
			c0.3,0,0.6-0.1,0.9-0.2c0.3-0.1,0.5-0.3,0.8-0.5l1.2,1.1c-0.4,0.4-0.8,0.7-1.3,0.9s-1,0.3-1.5,0.3C35.2,14.6,34.5,14.5,34,14.2z"
			/>
		<path class="st4" d="M41.1,14c-0.4-0.4-0.7-1-0.7-1.8s0.2-1.3,0.7-1.7s1.1-0.6,2-0.6h2.1l0.1,1.4h-2.2c-0.4,0-0.6,0.1-0.8,0.2
			c-0.2,0.1-0.3,0.4-0.3,0.7s0.1,0.6,0.3,0.7c0.2,0.2,0.6,0.2,1,0.2c0.6,0,1-0.1,1.3-0.2c0.3-0.1,0.4-0.3,0.4-0.6l0.2,1.1
			c-0.1,0.2-0.2,0.4-0.4,0.6s-0.5,0.3-0.8,0.4c-0.3,0.1-0.6,0.1-1,0.1C42.2,14.6,41.6,14.4,41.1,14z M45.2,9.6c0-0.4-0.1-0.8-0.4-1
			c-0.3-0.2-0.6-0.4-1.1-0.4c-0.3,0-0.6,0-0.9,0.1c-0.3,0.1-0.5,0.2-0.8,0.4l-1.2-1c0.3-0.4,0.7-0.6,1.2-0.8c0.5-0.2,1-0.3,1.6-0.3
			c0.7,0,1.2,0.1,1.7,0.3c0.5,0.2,0.8,0.6,1.1,1c0.3,0.4,0.4,0.9,0.4,1.6v5h-1.6V9.6z"/>
		<path class="st4" d="M50.5,14.5c-0.4-0.1-0.8-0.2-1.2-0.4s-0.7-0.4-1-0.6l1.1-1.3c0.4,0.3,0.8,0.5,1.2,0.6s0.8,0.2,1.2,0.2
			c0.5,0,1-0.1,1.2-0.2c0.3-0.1,0.4-0.4,0.4-0.6c0-0.2-0.1-0.4-0.2-0.5c-0.1-0.1-0.3-0.2-0.5-0.2s-0.5-0.1-0.9-0.1
			c-0.1,0-0.1,0-0.2,0c-0.1,0-0.1,0-0.2,0c0,0,0,0-0.1,0c0,0,0,0-0.1,0c-0.5-0.1-1-0.1-1.3-0.2s-0.6-0.3-0.9-0.6
			c-0.2-0.3-0.4-0.7-0.4-1.3c0-0.5,0.1-1,0.4-1.3s0.6-0.6,1-0.8c0.5-0.2,1-0.3,1.7-0.3c0.4,0,0.8,0,1.2,0.1s0.7,0.2,1.1,0.3
			c0.3,0.1,0.7,0.3,1,0.5l-1,1.1c-0.4-0.2-0.7-0.4-1.1-0.5c-0.4-0.1-0.7-0.2-1.1-0.2c-0.5,0-0.8,0.1-1.1,0.2
			c-0.2,0.1-0.4,0.3-0.4,0.6c0,0.2,0.1,0.3,0.2,0.4c0.1,0.1,0.3,0.2,0.5,0.2s0.5,0.1,0.9,0.1H52h0.1c0,0,0,0,0.1,0c0,0,0,0,0.1,0
			c0.6,0.1,1,0.1,1.4,0.2c0.4,0.1,0.7,0.3,1,0.7c0.3,0.3,0.4,0.8,0.4,1.4c0,0.5-0.1,1-0.4,1.4c-0.2,0.4-0.6,0.7-1.1,0.9
			s-1.1,0.3-1.8,0.3C51.4,14.6,50.9,14.6,50.5,14.5z"/>
		<path class="st4" d="M56.1,6.7h1.7l2.5,6.7L59.2,15L56.1,6.7z M63.1,6.7l-3.4,9.6c-0.1,0.4-0.3,0.6-0.5,0.8s-0.4,0.4-0.7,0.4
			c-0.3,0.1-0.6,0.1-1,0.1h-0.4V16h0.4c0.3,0,0.5-0.1,0.6-0.2c0.2-0.1,0.3-0.3,0.4-0.5l2.9-8.6H63.1z"/>
		<path class="st4" d="M64.3,3.6h1.8v10.8h-1.8V3.6z M66.7,14.2c-0.3-0.2-0.6-0.6-0.8-1l0.1-1.7c0,0.3,0.1,0.5,0.2,0.8
			c0.1,0.2,0.3,0.4,0.5,0.5s0.4,0.2,0.7,0.2c0.4,0,0.8-0.1,1-0.4c0.2-0.3,0.4-0.7,0.4-1.2V9.9c0-0.5-0.1-0.9-0.4-1.2
			c-0.2-0.3-0.6-0.4-1-0.4c-0.3,0-0.5,0.1-0.7,0.2c-0.2,0.1-0.4,0.3-0.5,0.5S66,9.5,66,9.8L65.9,8c0.2-0.5,0.5-0.8,0.9-1
			s0.8-0.4,1.2-0.4c0.5,0,1,0.1,1.4,0.4s0.7,0.6,0.9,1.1c0.2,0.5,0.3,1.1,0.3,1.8v1.5c0,0.7-0.1,1.3-0.3,1.7
			c-0.2,0.5-0.5,0.9-0.9,1.1c-0.4,0.3-0.9,0.4-1.4,0.4S67.1,14.5,66.7,14.2z"/>
		<path class="st4" d="M72.9,14c-0.4-0.4-0.7-1-0.7-1.8s0.2-1.3,0.7-1.7c0.4-0.4,1.1-0.6,2-0.6H77l0.1,1.4h-2.2
			c-0.4,0-0.6,0.1-0.8,0.2c-0.2,0.1-0.3,0.4-0.3,0.7s0.1,0.6,0.3,0.7c0.2,0.2,0.6,0.2,1,0.2c0.6,0,1-0.1,1.3-0.2
			c0.3-0.1,0.4-0.3,0.4-0.6l0.2,1.1c-0.1,0.2-0.2,0.4-0.4,0.6c-0.2,0.2-0.5,0.3-0.8,0.4c-0.3,0.1-0.6,0.1-1,0.1
			C74,14.6,73.3,14.4,72.9,14z M76.9,9.6c0-0.4-0.1-0.8-0.4-1s-0.6-0.4-1.1-0.4c-0.3,0-0.6,0-0.9,0.1S74,8.5,73.7,8.7l-1.2-1
			c0.3-0.4,0.7-0.6,1.2-0.8c0.5-0.2,1-0.3,1.6-0.3c0.7,0,1.2,0.1,1.7,0.3c0.5,0.2,0.8,0.6,1.1,1c0.3,0.4,0.4,0.9,0.4,1.6v5h-1.6
			C76.9,14.5,76.9,9.6,76.9,9.6z"/>
		<path class="st4" d="M80.7,6.7h1.8v7.7h-1.8V6.7z M85.3,9.8c0-0.5-0.1-0.8-0.4-1.1c-0.2-0.3-0.6-0.4-1.1-0.4c-0.4,0-0.8,0.1-1,0.4
			c-0.2,0.2-0.4,0.6-0.4,1l-0.2-1.6c0.2-0.5,0.5-0.8,0.9-1.1s0.8-0.4,1.3-0.4c0.8,0,1.5,0.3,1.9,0.8C86.8,7.9,87,8.7,87,9.7v4.7
			h-1.8L85.3,9.8L85.3,9.8z"/>
		<path class="st4" d="M89.3,3.6H91v10.8h-1.8V3.6H89.3z M90.1,11.6l3.8-4.9h2l-5.7,6.9L90.1,11.6z M91.9,10.2l1.3-1l3,5.3h-2
			L91.9,10.2z"/>
	</g>
</g>
</svg>
